<svg id="Capa_1" enable-background="new 0 0 512 512" height="512" viewBox="0 0 512 512" width="512" xmlns="http://www.w3.org/2000/svg"><g><path d="m451.217 81c-30.913 0-58.559 14.246-76.727 36.513-11.079-25.972-33.404-46.036-60.823-54.048v-5.798c-.001-31.798-25.87-57.667-57.667-57.667s-57.667 25.869-57.667 57.667v5.798c-27.419 8.012-49.744 28.077-60.823 54.048-18.168-22.268-45.814-36.513-76.727-36.513h-59.45v98.112c0 17.895 6.161 35.441 17.348 49.408 8.619 10.76 19.962 19.073 32.703 24.11v14.87c0 37.22 30.28 67.5 67.5 67.5h11.058v27.253c0 19.529-12.3 37.218-30.607 44.017l-9.778 3.631v65.815h38.443c30.418 0 57.533-14.4 74.896-36.738l7.472 73.022h91.265l7.472-73.021c17.363 22.338 44.478 36.738 74.896 36.738h38.444v-65.815l-9.778-3.631c-18.307-6.799-30.607-24.488-30.607-44.017v-27.254h11.058c37.22 0 67.5-30.28 67.5-67.5v-14.87c12.74-5.037 24.084-13.35 32.703-24.11 11.187-13.967 17.348-31.513 17.348-49.408v-98.112zm29.45 98.112c0 23.123-15.76 42.8-38.326 47.849l-11.725 2.624v37.915c0 20.678-16.822 37.5-37.5 37.5h-10.9v-125c0-38.047 30.953-69 69-69h29.45v68.112zm-88.223 266.605h-8.444c-35.743 0-64.822-29.079-64.822-64.822v-6.141h33.915c3.887 23.362 18.482 43.888 39.351 55.2zm-40.385-100.963h-33.313l3.625-35.42h-30.156l-17.67 172.666h-37.091l-17.669-172.666h-30.156l3.624 35.42h-33.313v-112.068c0-35.841 29.159-65 65-65h16.06v56.314h30v-56.314h16.059c35.841 0 65 29.159 65 65zm-224.059 100.963h-8.444v-15.763c20.869-11.312 35.464-31.838 39.351-55.2h33.915v6.141c0 35.743-29.079 64.822-64.822 64.822zm-46.617-178.217v-37.915l-11.725-2.624c-22.565-5.049-38.326-24.726-38.326-47.849v-68.112h29.45c38.047 0 69 30.953 69 69v125h-10.9c-20.677 0-37.499-16.823-37.499-37.5zm174.617-237.5c15.255 0 27.666 12.411 27.666 27.667h-55.333c0-15.256 12.411-27.667 27.667-27.667zm-31.059 59.667h62.118c35.841 0 65 29.159 65 65v8.805c-17.006-15.98-39.878-25.786-65-25.786h-62.118c-25.122 0-47.994 9.806-65 25.786v-8.805c0-35.841 29.158-65 65-65z"/></g></svg>