<svg id="Capa_1" enable-background="new 0 0 511.833 511.833" height="512" viewBox="0 0 511.833 511.833" width="512" xmlns="http://www.w3.org/2000/svg"><g><path d="m321.361 374.754-7.288 73.851c10.831 8.371 24.394 13.37 39.111 13.37h29.417v-39.683l-9.778-3.631c-9.007-3.345-15.058-12.047-15.058-21.655v-22.251h-36.404z"/><path d="m190.472 374.754h-36.404v22.251c0 9.608-6.051 18.311-15.058 21.655l-9.778 3.631v39.683h29.417c14.716 0 28.28-4.998 39.111-13.37z"/><path d="m451.133 81c-30.913 0-58.559 14.246-76.727 36.513-11.079-25.972-33.404-46.036-60.823-54.048v-5.798c0-31.798-25.869-57.667-57.666-57.667s-57.667 25.869-57.667 57.667v5.798c-27.419 8.012-49.744 28.077-60.823 54.048-18.168-22.268-45.814-36.513-76.727-36.513h-59.45v98.112c0 17.895 6.161 35.441 17.348 49.408 8.619 10.76 19.962 19.073 32.703 24.11v14.87c0 37.22 30.28 67.5 67.5 67.5h5.336v-108.86c0-54.656 44.465-99.121 99.121-99.121h65.318c54.656 0 99.121 44.465 99.121 99.121v108.86h5.336c37.22 0 67.5-30.28 67.5-67.5v-14.87c12.74-5.037 24.084-13.35 32.703-24.11 11.187-13.967 17.348-31.513 17.348-49.408v-98.112z"/><path d="m357.697 226.14c0-38.113-31.008-69.121-69.121-69.121h-17.659v66.981h-30v-66.98h-17.659c-38.113 0-69.121 31.008-69.121 69.121v118.613h33.375l-3.495-35.42h30.146l19.984 202.5h43.541l19.984-202.5h30.146l-3.495 35.42h33.375v-118.614z"/></g></svg>