<svg id="Capa_1" enable-background="new 0 0 512 512" height="512" viewBox="0 0 512 512" width="512" xmlns="http://www.w3.org/2000/svg"><g><path d="m481 497c0-80.489-58.165-150.116-136.938-163.621-7.568-1.298-13.062-7.486-13.062-14.714v-19.261c18.546-18.946 30-44.86 30-73.404v-48.58c17.459-6.192 30-22.865 30-42.42v-60c0-41.355-33.645-75-75-75h-120c-41.355 0-75 33.645-75 75v60c0 19.555 12.541 36.228 30 42.42v48.58c0 28.543 11.454 54.458 30 73.404v19.261c0 7.228-5.493 13.416-13.061 14.714-78.689 13.49-136.939 83.039-136.939 163.621v15h450zm-390-15h-29.154c2.934-25.963 13.374-50.14 29.154-69.949zm60 0h-30v-97.875c9.249-6.325 19.31-11.523 30-15.37zm180-256c0 .599-.031 1.19-.045 1.786-21.944-8.302-44.698-16.786-74.955-16.786s-53.011 8.484-74.955 16.786c-.014-.596-.045-1.187-.045-1.786v-46c31.9 0 60.929-12.515 82.445-32.889 18.559 17.651 42.105 28.807 67.555 31.965zm-6.861 31.281c-11.88 25.775-37.946 43.719-68.139 43.719s-56.259-17.944-68.139-43.719c23.841-8.995 42.261-16.281 68.139-16.281 25.883 0 44.406 7.326 68.139 16.281zm-23.139-227.281h15c24.813 0 45 20.187 45 45v15h-15c-24.813 0-45-20.187-45-45zm-6.626 69.326c13.458 12.796 31.634 20.674 51.626 20.674h15v15c0 8.271-6.729 15-15 15-24.065 0-46.647-9.42-63.439-26.156 4.818-7.637 8.799-15.853 11.813-24.518zm-143.374-24.326c0-24.813 20.187-45 45-45h15v15c0 24.813-20.187 45-45 45h-15zm15 75c-8.271 0-15-6.729-15-15v-15h15c41.355 0 75-33.645 75-75v-15h30v30c0 49.626-40.374 90-90 90zm75 332h-60v-109.046c18.692 9.591 38.975 15.47 60 17.366zm-41.591-133.453c6.793-7.481 11.025-17.164 11.536-27.718 13.66 6.517 28.938 10.171 45.055 10.171s31.395-3.654 45.055-10.17c.511 10.554 4.743 20.237 11.536 27.718-17.621 8.182-36.818 12.452-56.591 12.452s-38.97-4.27-56.591-12.453zm71.591 133.453v-91.679c26.738-2.411 52.277-11.258 74.867-25.994 55.569 12.661 97.872 60.901 104.288 117.674h-179.155z"/></g></svg>