<svg id="Capa_1" enable-background="new 0 0 512 512" height="512" viewBox="0 0 512 512" width="512" xmlns="http://www.w3.org/2000/svg"><g><path d="m30 313.237v2.763h90v30h-90v30h181v-90h-166c-8.276 0-15-6.724-15-15h-30c0 19.53 12.578 36.024 30 42.237z"/><path d="m0 406h512v60h-512z"/><path d="m211 136h-106c-8.276 0-15-6.724-15-15h-30c0 19.53 12.578 36.024 30 42.237v17.763h121z"/><path d="m211 256v-45h-136c-8.276 0-15-6.724-15-15h-30c0 19.53 12.578 36.024 30 42.237v17.763z"/><path d="m211 61h-76c-8.276 0-15-6.724-15-15h-30c0 19.53 12.578 36.024 30 42.237v17.763h91z"/><path d="m467 286h-166v90h181v-30h-91v-30h91v-2.763c17.422-6.213 30-22.707 30-42.237h-30c0 8.276-6.724 15-15 15z"/><path d="m406 136h-105v45h120v-17.763c17.422-6.213 30-22.707 30-42.237h-30c0 8.276-6.724 15-15 15z"/><path d="m436 211h-135v45h150v-17.763c17.422-6.213 30-22.707 30-42.237h-30c0 8.276-6.724 15-15 15z"/><path d="m376 61h-75v45h90v-17.763c17.422-6.213 30-22.707 30-42.237h-30c0 8.276-6.724 15-15 15z"/></g></svg>