<svg id="Capa_1" enable-background="new 0 0 512 512" height="512" viewBox="0 0 512 512" width="512" xmlns="http://www.w3.org/2000/svg"><g><path d="m505.903 103.5c-25.16-1.075-84.139-.55-134.972 22.846 3.191 13.654 4.824 27.159 4.824 40.384 0 45.511-19.199 94.331-55.521 141.182-9.558 12.329-19.085 22.98-27.46 31.648 10.98-.229 23.88-.989 37.726-2.772 36.136-4.651 86.452-17.438 120.944-51.93 19.038-19.038 43.502-55.476 51.93-120.944 3.252-25.256 3.102-47.366 2.529-60.414z"/><path d="m173.687 51.244c-21.374-12.059-41.023-20.033-52.931-24.367-5.35 11.472-13.598 30.984-20.182 54.601 16.322 3.652 33.148 8.802 49.493 16 5.986-15.398 13.883-30.869 23.62-46.234z"/><path d="m219.213 339.545c-8.372-8.665-17.894-19.312-27.447-31.634-36.322-46.851-55.521-95.671-55.521-141.182 0-13.225 1.633-26.73 4.824-40.384-50.826-23.391-109.797-23.919-134.973-22.845-.572 13.045-.723 35.156 2.529 60.413 4.652 36.135 17.438 86.452 51.93 120.944 44.955 44.954 116.227 53.786 158.658 54.688z"/><path d="m411.427 81.478c-6.584-23.615-14.831-43.125-20.183-54.601-11.904 4.332-31.555 12.306-52.931 24.367 9.737 15.365 17.634 30.836 23.621 46.234 16.346-7.197 33.171-12.348 49.493-16z"/><path d="m255.986 333.47c24.696-22.696 89.755-89.799 89.755-166.741 0-76.925-65.028-144.014-89.741-166.729-24.704 22.706-89.741 89.798-89.741 166.729 0 77.143 65.012 144.084 89.727 166.741z"/><path d="m420.541 342.236c-25.115 12.02-54.392 20.292-86.964 24.415-15.235 1.929-29.306 2.73-41.238 2.952 5.763 7.361 11.576 15.948 16.461 25.499 17.401 15.533 35.312 25.026 53.272 28.193 41.732 7.358 84.774-19.171 103.713-32.922-8.33-12.347-24.079-32.912-45.244-48.137z"/><path d="m220.801 442.854c0 27.666 20.558 54.46 35.135 69.146 13.062-13.124 35.263-39.757 35.263-69.146 0-29.339-22.121-55.927-35.199-69.081-13.078 13.153-35.199 39.741-35.199 69.081z"/><path d="m91.459 342.236c-21.163 15.223-36.91 35.785-45.244 48.139 18.93 13.744 61.977 40.278 103.713 32.921 17.96-3.167 35.871-12.66 53.272-28.193 4.886-9.551 10.699-18.139 16.462-25.5-11.933-.222-26.001-1.022-41.24-2.951-32.571-4.124-61.848-12.396-86.963-24.416z"/></g></svg>