<svg id="Capa_1" enable-background="new 0 0 511.078 511.078" height="512" viewBox="0 0 511.078 511.078" width="512" xmlns="http://www.w3.org/2000/svg"><g><path d="m95.134 358.086c-13.269-32.034-20.509-65.521-21.762-99.126-23.587-8.765-48.173-13.946-73.372-15.444 6.511 108.854 81.352 199.593 182.106 229.812-37.998-29.919-67.924-69.258-86.972-115.242z"/><path d="m179.122 207.519c-18.438-17.124-39.171-31.316-61.881-42.343-20.473 59.126-18.603 122.977 5.609 181.429 16.53 39.908 42.209 74.221 74.747 100.681-23.693-42.207-36.306-90.041-36.306-139.854.001-34.675 6.128-68.385 17.831-99.913z"/><path d="m437.707 258.959c-1.253 33.605-8.493 67.093-21.762 99.126-19.048 45.985-48.974 85.323-86.972 115.242 100.754-30.218 175.595-120.958 182.106-229.812-25.2 1.499-49.786 6.68-73.372 15.444z"/><path d="m388.228 346.605c24.212-58.452 26.082-122.303 5.609-181.429-22.71 11.028-43.443 25.219-61.881 42.343 11.703 31.528 17.83 65.238 17.83 99.913 0 49.813-12.613 97.646-36.306 139.854 32.538-26.46 58.217-60.773 74.748-100.681z"/><ellipse cx="255.539" cy="307.432" rx="64.247" ry="169.765"/><circle cx="255.539" cy="67.615" r="33.734"/><circle cx="90.432" cy="100.452" r="33.734"/><circle cx="420.646" cy="100.452" r="33.734"/></g></svg>