<?xml version="1.0" encoding="iso-8859-1"?>
<!-- Generator: Adobe Illustrator 19.0.0, SVG Export Plug-In . SVG Version: 6.00 Build 0)  -->
<svg version="1.1" id="Capa_1" xmlns="http://www.w3.org/2000/svg" xmlns:xlink="http://www.w3.org/1999/xlink" x="0px" y="0px"
	 viewBox="0 0 512 512" style="enable-background:new 0 0 512 512;" xml:space="preserve">
<g>
	<g>
		<path d="M256,0c-33.091,0-60,26.909-60,60v32c0,33.091,26.909,60,60,60s60-26.909,60-60V60C316,26.909,289.091,0,256,0z"/>
	</g>
</g>
<g>
	<g>
		<path d="M403.568,427.933L211,452v60h197.798C432.074,512,451,493.074,451,469.798C451,445.198,429.668,424.862,403.568,427.933z"
			/>
	</g>
</g>
<g>
	<g>
		<path d="M271,323.211v41.494l143.489,28.698L391,182l-65.953-32.975C308.527,168.99,283.881,182,256,182
			c-27.881,0-52.527-13.01-69.047-32.975L121,182L97.511,393.403L241,364.704v-41.493L232.211,332h-75.366l18.135-89.546
			l29.414,5.947L193.524,302h26.265L256,265.789L292.211,302h26.265l-10.869-53.599l29.414-5.947L355.155,332h-75.366L271,323.211z"
			/>
	</g>
</g>
<g>
	<g>
		<polygon points="256,392.297 182.624,406.971 256.005,416.142 329.383,406.973 		"/>
	</g>
</g>
<g>
	<g>
		<path d="M108.432,427.933C82.332,424.862,61,445.198,61,469.798C61,493.074,79.926,512,103.202,512H181v-74.998L108.432,427.933z"
			/>
	</g>
</g>
<g>
</g>
<g>
</g>
<g>
</g>
<g>
</g>
<g>
</g>
<g>
</g>
<g>
</g>
<g>
</g>
<g>
</g>
<g>
</g>
<g>
</g>
<g>
</g>
<g>
</g>
<g>
</g>
<g>
</g>
</svg>
