<svg height="512pt" viewBox="0 0 512 512" width="512pt" xmlns="http://www.w3.org/2000/svg"><path d="m151.046875 351.558594c-5.449219 4.363281-13.585937 10.878906-23.40625 18.742187l72.300781 72.300781c2.839844 2.835938 5.289063 5.917969 7.371094 9.164063l33.660156-39.941406v-228.582031c0-8.917969-7.253906-16.171876-16.171875-16.171876-8.914062 0-16.167969 7.253907-16.167969 16.171876v66.203124h-30v-66.203124c0-25.457032 20.710938-46.171876 46.167969-46.171876 5.6875 0 11.136719 1.042969 16.171875 2.929688v-139.738281c-1.328125-.15625-2.671875-.261719-4.039062-.261719-13.277344 0-25.324219 7.722656-30.886719 19.730469l-74.433594 137.417969-.230469.441406c-9.953124 19.925781-12.851562 42.894531-8.167968 64.671875zm0 0"/><path d="m270.972656 140c5.035156-1.886719 10.480469-2.929688 16.167969-2.929688 25.460937 0 46.171875 20.714844 46.171875 46.171876v66.203124h-30v-66.203124c0-8.917969-7.253906-16.171876-16.171875-16.171876-8.914063 0-16.167969 7.253907-16.167969 16.171876v228.605468l33.660156 40.003906c2.097657-3.277343 4.5625-6.386718 7.425782-9.25l72.246094-72.246093c-9.820313-7.878907-17.964844-14.414063-23.410157-18.785157l27.832031-129.308593c4.6875-21.777344 1.789063-44.746094-8.167968-64.675781l-.109375-.222657-74.550781-137.632812c-5.5625-12.007813-17.609376-19.730469-30.886719-19.730469-1.367188 0-2.710938.105469-4.039063.261719zm0 0"/><path d="m440.9375 391.277344c-9.683594-9.683594-25.445312-9.683594-35.132812 0l-72.535157 72.535156c-9.683593 9.6875-9.683593 25.449219 0 35.132812 9.6875 9.6875 25.449219 9.6875 35.132813 0l72.535156-72.53125c9.6875-9.6875 9.6875-25.449218 0-35.136718zm0 0"/><path d="m512 473.089844c-11.410156-9.191406-26.300781-21.300782-42.613281-34.410156-2.054688 3.167968-4.460938 6.171874-7.234375 8.945312l-64.375 64.375h114.222656zm0 0"/><path d="m143.597656 498.945312c9.683594 9.6875 25.445313 9.6875 35.132813 0 9.683593-9.683593 9.683593-25.445312 0-35.132812l-72.535157-72.535156c-4.84375-4.839844-11.207031-7.261719-17.566406-7.261719-6.363281 0-12.726562 2.421875-17.566406 7.261719-9.6875 9.6875-9.6875 25.449218 0 35.132812zm0 0"/><path d="m0 512h114.222656l-64.375-64.375c-2.824218-2.824219-5.269531-5.890625-7.347656-9.125-16.011719 12.835938-30.910156 24.789062-42.5 34.101562zm0 0"/></svg>