<svg id="Capa_1" enable-background="new 0 0 512 512" height="512" viewBox="0 0 512 512" width="512" xmlns="http://www.w3.org/2000/svg"><g><path d="m457.686 512v-48.158h-353.988c-13.296 0-24.076 10.777-24.079 24.073-.003 13.301 10.778 24.085 24.079 24.085z"/><path d="m108.685 433.842v-432.952c-30.782 5.106-54.333 31.903-54.333 64.11l-.038 399.709c8.767-18.189 25.305-30.867 54.371-30.867z"/><path d="m138.685 433.842h319.001v-433.842h-319.001zm145.001-256.842v-74.667h89.666v30h-59.666v44.667h74.666v89.667h-30v-59.667h-44.666v74.667h-89.667v-30h59.667v-44.667h-74.667v-89.667h30v59.667zm104.666 149.333v30h-119.333v-30zm-149.333 0v30h-30v-30z"/></g></svg>