<?xml version="1.0" standalone="no"?>
<!DOCTYPE svg PUBLIC "-//W3C//DTD SVG 20010904//EN"
 "http://www.w3.org/TR/2001/REC-SVG-20010904/DTD/svg10.dtd">
<svg version="1.0" xmlns="http://www.w3.org/2000/svg"
 width="700.000000pt" height="700.000000pt" viewBox="0 0 700.000000 700.000000"
 preserveAspectRatio="xMidYMid meet">
<metadata>
Created by potrace 1.11, written by Peter Selinger 2001-2013
</metadata>
<g transform="translate(0.000000,700.000000) scale(0.100000,-0.100000)"
fill="#000000" stroke="none">
<path d="M3123 6984 c-127 -33 -234 -119 -301 -244 -22 -41 -76 -140 -119
-220 -79 -144 -99 -181 -114 -210 -12 -23 -214 -397 -257 -475 -21 -38 -89
-164 -151 -280 -63 -115 -126 -232 -141 -260 -76 -139 -157 -288 -193 -355
-22 -41 -43 -79 -47 -85 -17 -25 -75 -178 -97 -255 -23 -85 -26 -103 -42 -234
-13 -111 -3 -281 23 -405 8 -36 33 -151 56 -256 23 -104 54 -251 70 -325 83
-388 87 -408 94 -435 2 -12 23 -108 45 -215 23 -107 46 -215 52 -240 5 -25 22
-101 38 -170 l27 -125 -157 -125 c-87 -69 -158 -128 -159 -131 0 -3 225 -231
500 -505 275 -274 519 -523 541 -551 23 -29 44 -53 48 -53 3 0 20 20 38 43 18
23 42 53 55 67 13 14 43 50 68 80 25 30 55 66 67 80 122 143 215 256 221 269
5 9 8 727 7 1596 l-1 1580 -23 45 c-84 163 -308 166 -394 5 -22 -39 -22 -50
-24 -510 -1 -258 -2 -476 -2 -482 -1 -10 -49 -13 -205 -13 l-203 0 0 488 c0
522 3 556 53 669 123 279 439 435 730 359 34 -9 63 -16 65 -16 2 0 4 429 4
954 l0 954 -60 0 c-33 0 -84 -7 -112 -14z"/>
<path d="M3709 6999 c-4 -13 -3 -1909 1 -1909 3 0 21 5 40 10 133 39 309 28
429 -27 170 -79 293 -218 352 -400 22 -66 22 -81 24 -576 l2 -507 -205 2 -205
3 -1 480 -1 480 -28 47 c-62 106 -183 141 -293 87 -52 -27 -64 -39 -95 -99
l-24 -45 0 -1588 0 -1587 98 -118 c54 -64 108 -128 120 -142 12 -14 56 -66 97
-115 41 -49 83 -99 94 -110 10 -11 25 -30 33 -42 15 -23 15 -22 54 30 21 28
266 279 545 557 l505 505 -39 35 c-22 19 -63 53 -92 75 -28 22 -66 53 -83 68
-18 15 -45 35 -60 45 -38 23 -42 47 -23 134 9 40 18 82 20 94 2 11 12 52 21
90 19 81 25 110 32 144 2 14 15 77 29 140 14 63 27 126 30 140 3 14 14 67 25
119 12 51 22 101 24 110 18 87 49 228 60 276 8 33 16 71 19 85 2 14 16 79 30
145 15 66 29 132 31 147 3 16 12 56 20 90 8 35 17 78 20 97 3 19 8 37 10 41 6
10 18 151 19 220 0 73 -13 240 -19 251 -3 4 -7 24 -11 45 -15 102 -79 259
-191 465 -63 118 -132 246 -152 284 -59 108 -106 195 -209 385 -52 96 -111
204 -130 240 -19 36 -90 166 -157 290 -67 124 -140 259 -162 300 -22 41 -51
95 -65 120 -14 25 -44 81 -68 125 -67 121 -154 199 -269 240 -40 14 -199 33
-202 24z"/>
<path d="M1101 1731 c-78 -29 -113 -56 -165 -124 -77 -100 -81 -271 -10 -376
13 -20 260 -272 548 -562 601 -602 578 -583 731 -584 96 0 136 13 213 72 84
64 137 200 120 311 -18 114 -25 122 -592 689 -470 470 -539 535 -591 559 -80
37 -179 42 -254 15z"/>
<path d="M5694 1736 c-22 -7 -58 -23 -80 -35 -59 -33 -1097 -1077 -1119 -1126
-82 -175 -20 -366 147 -456 58 -31 70 -34 153 -34 152 0 126 -20 734 588 292
293 537 541 545 552 24 35 49 118 51 175 12 224 -218 403 -431 336z"/>
<path d="M404 864 c-213 -171 -239 -192 -262 -212 -11 -10 -47 -38 -81 -64
l-61 -48 0 -270 0 -270 781 0 782 0 -467 468 c-256 257 -476 482 -489 499 -12
18 -25 33 -28 33 -3 0 -81 -61 -175 -136z"/>
<path d="M6410 993 c0 -16 -59 -76 -511 -530 l-462 -463 782 0 781 0 0 268 -1
267 -45 35 c-26 19 -51 40 -58 45 -36 33 -476 385 -481 385 -3 0 -5 -3 -5 -7z"/>
</g>
</svg>
