<svg xmlns="http://www.w3.org/2000/svg" xmlns:xlink="http://www.w3.org/1999/xlink" width="564.15" height="145.02" viewBox="0 0 564.15 145.02"><defs><linearGradient id="a" x1="559.3" y1="285.03" x2="555.76" y2="273.37" gradientUnits="userSpaceOnUse"><stop offset="0.05" stop-color="#1d1e1c"/><stop offset="0.24" stop-color="#20211f"/><stop offset="0.38" stop-color="#292a28"/><stop offset="0.5" stop-color="#393a38"/><stop offset="0.62" stop-color="#50504e"/><stop offset="0.72" stop-color="#6d6d6b"/><stop offset="0.83" stop-color="#90908e"/><stop offset="0.92" stop-color="#bab9b7"/><stop offset="1" stop-color="#e1e0de"/></linearGradient><linearGradient id="b" x1="608.84" y1="354.52" x2="602.78" y2="361.75" gradientUnits="userSpaceOnUse"><stop offset="0.12" stop-color="#1d1e1c"/><stop offset="0.27" stop-color="#20211f"/><stop offset="0.39" stop-color="#2a2b29"/><stop offset="0.5" stop-color="#3b3c3a"/><stop offset="0.6" stop-color="#535452"/><stop offset="0.7" stop-color="#717271"/><stop offset="0.8" stop-color="#979897"/><stop offset="0.9" stop-color="#c4c4c3"/><stop offset="0.99" stop-color="#f6f6f6"/><stop offset="1" stop-color="#fff"/></linearGradient><linearGradient id="c" x1="574.08" y1="355.73" x2="568.28" y2="361.82" gradientUnits="userSpaceOnUse"><stop offset="0" stop-color="#1d1e1c"/><stop offset="0.17" stop-color="#20211f"/><stop offset="0.31" stop-color="#2a2b29"/><stop offset="0.43" stop-color="#3b3c3a"/><stop offset="0.55" stop-color="#535452"/><stop offset="0.66" stop-color="#717271"/><stop offset="0.77" stop-color="#979897"/><stop offset="0.88" stop-color="#c4c4c3"/><stop offset="0.98" stop-color="#f6f6f6"/><stop offset="1" stop-color="#fff"/></linearGradient><linearGradient id="d" x1="706.74" y1="341.68" x2="680.09" y2="318.15" gradientTransform="translate(-45.16 -49.59) rotate(-1)" gradientUnits="userSpaceOnUse"><stop offset="0" stop-color="#1d1e1c"/><stop offset="0.08" stop-color="#20211f"/><stop offset="0.15" stop-color="#2a2b29"/><stop offset="0.21" stop-color="#3b3b3a"/><stop offset="0.21" stop-color="#3c3c3b"/><stop offset="0.45" stop-color="#5b5a59"/><stop offset="0.62" stop-color="#838484"/><stop offset="0.87" stop-color="#d7d7d7"/></linearGradient><linearGradient id="e" x1="380.59" y1="-121.76" x2="371.31" y2="-145.1" gradientTransform="matrix(0.99, 0.11, -0.11, 0.99, 238.45, 337.29)" gradientUnits="userSpaceOnUse"><stop offset="0" stop-color="#1d1e1c"/><stop offset="0.44" stop-color="#7e7e7d"/><stop offset="1" stop-color="#fff"/></linearGradient><linearGradient id="f" x1="702.04" y1="295.28" x2="696.18" y2="307.46" xlink:href="#c"/><linearGradient id="g" x1="695.25" y1="317.42" x2="681.72" y2="326.8" gradientUnits="userSpaceOnUse"><stop offset="0" stop-color="#2d2d2b"/><stop offset="0" stop-color="#1d1e1c"/><stop offset="0.17" stop-color="#20211f"/><stop offset="0.31" stop-color="#2a2b29"/><stop offset="0.43" stop-color="#3b3c3a"/><stop offset="0.55" stop-color="#535452"/><stop offset="0.66" stop-color="#717271"/><stop offset="0.77" stop-color="#979897"/><stop offset="0.88" stop-color="#c4c4c3"/><stop offset="0.98" stop-color="#f6f6f6"/><stop offset="1" stop-color="#fff"/></linearGradient><linearGradient id="h" x1="607.44" y1="303.81" x2="600.32" y2="282.71" gradientUnits="userSpaceOnUse"><stop offset="0" stop-color="#1d1e1c"/><stop offset="0.13" stop-color="#212220"/><stop offset="0.26" stop-color="#2f2f2e"/><stop offset="0.41" stop-color="#444544"/><stop offset="0.55" stop-color="#636462"/><stop offset="0.71" stop-color="#8a8b8a"/><stop offset="0.86" stop-color="#babab9"/><stop offset="1" stop-color="#eee"/></linearGradient></defs><title>LBF_RGB_Horizontal_2</title><g style="isolation:isolate"><path d="M387.17,244.47v-.11c4.23-1.25,6.92-4.24,6.92-8.91,0-7-6.2-9.84-12.19-9.84H366.34v39.86h14.4c7.48,0,15.06-3.07,15.06-11.31C395.8,248.54,392.34,245.19,387.17,244.47ZM373.42,231.6h5.72c5.33,0,7.87,1.27,7.87,4.8s-2.54,5.43-7.26,5.43h-6.33Zm6.38,27.88h-6.38V247.89h6.66c5.66,0,8.64,1.49,8.64,5.54C388.72,258.76,383.59,259.48,379.8,259.48Z" transform="translate(-136.85 -225.13)" style="fill:#006341"/><polygon points="337.38 0.47 330.36 0.47 330.36 29.25 330.25 29.25 313.42 0.47 304.3 0.47 304.3 40.35 311.12 40.35 311.12 10.66 311.23 10.66 328.44 40.35 337.38 40.35 337.38 0.47" style="fill:#006341"/><polygon points="360.49 19.59 378.96 0.47 369.54 0.47 352.91 18.39 352.75 18.39 352.74 0.47 345.78 0.47 345.78 40.35 352.75 40.35 352.75 21.01 352.91 21.01 370.63 40.35 380.52 40.35 360.49 19.59" style="fill:#006341"/><path d="M420.19,225.61h-6.1l-17.21,39.86h8.24l3.69-9.45a35.54,35.54,0,0,0,16.66,0l3.68,9.45h8.27Zm-3.05,25.32a32.31,32.31,0,0,1-6.14-.54l6.14-15.77,6.14,15.77A32.23,32.23,0,0,1,417.14,250.93Z" transform="translate(-136.85 -225.13)" style="fill:#006341"/><path d="M252.54,245.23c4.46-6.47,7.72-11.8,10.44-19.69h8.37c-3.92,10-8.54,17.74-15.06,26.71v13.17h-7.51V252.25c-6.52-9-11.14-16.75-15.06-26.71h8.38C244.81,233.43,248.08,238.76,252.54,245.23Z" transform="translate(-136.85 -225.13)" style="fill:#006341"/><path d="M329.74,241.88c-3.67-1.15-5.75-1.81-7.12-2.69a3.33,3.33,0,0,1-1.78-3,3.67,3.67,0,0,1,2.32-3.41,12.18,12.18,0,0,1,4.92-.93,29.23,29.23,0,0,1,8.71,1.61l2.51-5.79a25.7,25.7,0,0,0-11.1-2.48,18.31,18.31,0,0,0-10.09,2.7,9.9,9.9,0,0,0-4.62,8.58c0,6.81,5.75,9.51,11.45,11.32a34.46,34.46,0,0,1,6.47,2.43,4.42,4.42,0,0,1,2.55,3.9,4.51,4.51,0,0,1-2.32,3.85,12.35,12.35,0,0,1-5.93,1.2,19.57,19.57,0,0,1-11.81-4l-2.65,6.1c3.38,2.55,9.12,4.52,14.87,4.52,8.73,0,15.43-4.62,15.43-12.1,0-6.7-5.4-9.84-11.81-11.88Z" transform="translate(-136.85 -225.13)" style="fill:#006341"/><path d="M287.87,225.54H275.92v39.89h12.71c11.76,0,20.46-8.31,20.46-20.24C309.09,233.48,300.78,225.54,287.87,225.54Zm.76,32.89h-5.5V232.54h4.78c8.31,0,13.64,4.56,13.64,12.69C301.55,253,296.7,258.43,288.63,258.43Z" transform="translate(-136.85 -225.13)" style="fill:#006341"/><polygon points="30.77 40.29 53.17 40.29 55.61 33.2 38.09 33.2 38.09 0.41 30.77 0.41 30.77 40.29" style="fill:#006341"/><polygon points="0 40.29 22.4 40.29 24.84 33.2 7.32 33.2 7.32 0.41 0 0.41 0 40.29" style="fill:#006341"/><path d="M214,225.13c-12.17,0-20.26,9.07-20.26,20.43,0,11.21,7.87,20.28,20.11,20.28S234,256.77,234,245.41,226.13,225.13,214,225.13ZM213.87,259c-8.07,0-12.72-5.94-12.72-13.55S205.8,232,213.83,232s12.78,6.12,12.78,13.59S222,259,213.87,259Z" transform="translate(-136.85 -225.13)" style="fill:#006341"/><path d="M164.18,289.49V282.9H136.85v42.35h7.55V307.43H162l0-6.34H144.4v-11.6Z" transform="translate(-136.85 -225.13)" style="fill:#006341"/><path d="M243.86,283v26.07a10.78,10.78,0,0,1-2,6.57c-1.58,2-4,3-7.22,3s-5.64-1-7.23-3a10.78,10.78,0,0,1-2-6.57V283H217.3v26.23a15.81,15.81,0,0,0,5,12,19.42,19.42,0,0,0,24.74,0,15.84,15.84,0,0,0,5-12V283Z" transform="translate(-136.85 -225.13)" style="fill:#006341"/><path d="M376.92,282.9v6.59h13v35.76h7.55V289.49h13V282.9Z" transform="translate(-136.85 -225.13)" style="fill:#006341"/><path d="M416.88,282.9v42.35h7.55V282.9Z" transform="translate(-136.85 -225.13)" style="fill:#006341"/><path d="M316.53,282.9H303.85v42.35h13.49c12.49,0,21.72-8.8,21.72-21.48C339.06,291.33,330.25,282.9,316.53,282.9Zm.81,34.94H311.5V290.33h5.08c8.83,0,14.49,4.84,14.49,13.49C331.07,312.07,325.92,317.84,317.34,317.84Z" transform="translate(-136.85 -225.13)" style="fill:#006341"/><polygon points="158.28 57.77 150.82 57.77 150.82 88.34 150.71 88.34 132.83 57.77 123.13 57.77 123.13 100.13 130.38 100.13 130.38 68.59 130.5 68.59 148.78 100.13 158.27 100.13 158.28 57.77" style="fill:#006341"/><polygon points="378.67 57.77 371.21 57.77 371.21 88.34 371.1 88.34 353.22 57.77 343.52 57.77 343.52 100.13 350.77 100.13 350.77 68.59 350.88 68.59 369.17 100.13 378.67 100.13 378.67 57.77" style="fill:#006341"/><path d="M189.39,282.45c-13,0-21.53,9.65-21.53,21.72,0,11.9,8.34,21.55,21.34,21.55s21.48-9.65,21.48-21.72S202.27,282.45,189.39,282.45Zm-.12,36c-8.6,0-13.53-6.31-13.53-14.4s4.93-14.33,13.46-14.33,13.59,6.5,13.59,14.45S197.87,318.45,189.27,318.45Z" transform="translate(-136.85 -225.13)" style="fill:#006341"/><path d="M452.5,282.45c-12.93,0-21.53,9.65-21.53,21.72,0,11.9,8.37,21.55,21.37,21.55s21.48-9.65,21.48-21.72S465.38,282.45,452.5,282.45Zm-.12,36c-8.57,0-13.51-6.31-13.51-14.4s4.94-14.33,13.47-14.33,13.58,6.5,13.58,14.45S461,318.45,452.38,318.45Z" transform="translate(-136.85 -225.13)" style="fill:#006341"/><path d="M363.62,282.9h-6.51l-18.28,42.35h8.76l3.93-10a37.78,37.78,0,0,0,17.69,0l3.91,10h8.76Zm-3.27,26.91a31.64,31.64,0,0,1-6.52-.59l6.52-16.72,6.53,16.72A31.43,31.43,0,0,1,360.35,309.81Z" transform="translate(-136.85 -225.13)" style="fill:#006341"/><path d="M308.67,353.13h8.22l.22-2.06h-8.44v-7.19h9.54l.24-2H306.58v21.31h11.47l.24-2h-9.62Z" transform="translate(-136.85 -225.13)" style="fill:#1e1e1d"/><path d="M333.19,348.57a5.16,5.16,0,0,0-3.83-1.26,8,8,0,0,0-5.57,2.44l-.25-1.93H322v15.33h1.9V351.73a7.5,7.5,0,0,1,5.25-2.52,3.32,3.32,0,0,1,2.6.81c.62.64.84,1.71.84,3.3v9.83h1.9V353C334.48,350.88,334.1,349.49,333.19,348.57Z" transform="translate(-136.85 -225.13)" style="fill:#1e1e1d"/><path d="M352.62,346.9a11.11,11.11,0,0,0-4.09,1.58,6,6,0,0,0-3.89-1.17c-3.33,0-5.88,2.06-5.88,5.38v.09a4.9,4.9,0,0,0,1.93,4.12,2.63,2.63,0,0,0-1.63,2.39,2.87,2.87,0,0,0,1.12,2.28,4,4,0,0,0-2.62,3.7c0,2.83,2.46,4.88,6.95,4.88s7.15-2.4,7.15-5.18-1.77-4.15-4.88-4.15h-3.54c-1.61,0-2.3-.6-2.3-1.64a1.57,1.57,0,0,1,1.1-1.55,7.22,7.22,0,0,0,2.6.53c3.23,0,5.89-1.74,5.89-5.38v-.09a5,5,0,0,0-1-3.29,11.27,11.27,0,0,1,2.88-.45Zm-11.15,15.44a11.2,11.2,0,0,0,1.9.09h3c2.34,0,3.41.77,3.41,2.46,0,2.07-2.18,3.68-5.12,3.68-3.41,0-5.15-1.56-5.15-3.52A2.74,2.74,0,0,1,341.47,362.34Zm3.2-5.79c-2.75,0-4-1.71-4-3.8s1.23-3.8,4-3.8a3.58,3.58,0,0,1,3.93,3.8C348.6,354.9,347.39,356.55,344.67,356.55Z" transform="translate(-136.85 -225.13)" style="fill:#1e1e1d"/><path d="M355,341.33v21.82h1.88V341.33Z" transform="translate(-136.85 -225.13)" style="fill:#1e1e1d"/><path d="M373.18,362c-1.05,0-1.1-.5-1.1-1.68v-7.66c0-3.76-2.15-5.34-5.63-5.34a12.73,12.73,0,0,0-4.94,1l.31,1.67a11.78,11.78,0,0,1,4.28-1c3.19,0,4.07,1.35,4.07,3.76v.86h-.94a13.63,13.63,0,0,0-5.92.94,4.92,4.92,0,0,0-2.94,4.55c0,2.89,2.14,4.53,4.77,4.53a7.29,7.29,0,0,0,5.09-1.93,1.9,1.9,0,0,0,2,1.68,3.84,3.84,0,0,0,1.05-.15V362Zm-3-2.16a6.35,6.35,0,0,1-4.61,2.09,2.82,2.82,0,0,1-3.16-2.9,3.58,3.58,0,0,1,2.77-3.4,15.08,15.08,0,0,1,3.93-.43h1.07Z" transform="translate(-136.85 -225.13)" style="fill:#1e1e1d"/><path d="M387.76,348.57a5.12,5.12,0,0,0-3.82-1.26,8,8,0,0,0-5.57,2.44l-.26-1.93h-1.54v15.33h1.89V351.73a7.52,7.52,0,0,1,5.25-2.52,3.29,3.29,0,0,1,2.6.81c.64.64.86,1.71.86,3.3v9.83h1.9V353C389.07,350.88,388.69,349.49,387.76,348.57Z" transform="translate(-136.85 -225.13)" style="fill:#1e1e1d"/><path d="M405.45,357.06V341.33h-1.89v7a9.57,9.57,0,0,0-4.28-1,6.14,6.14,0,0,0-4.42,1.67c-1.5,1.46-2.28,3.83-2.28,6.77v.13a8.67,8.67,0,0,0,1.9,5.88,6.09,6.09,0,0,0,4.53,1.9,7.31,7.31,0,0,0,4.83-1.83l.16,1.32h1.61C405.52,361.33,405.45,358.76,405.45,357.06Zm-1.89,3a6.33,6.33,0,0,1-4.18,1.77c-3.26,0-4.79-2.38-4.79-6.29,0-3.33,1.18-6.43,5.2-6.43a7.84,7.84,0,0,1,3.77,1.12Z" transform="translate(-136.85 -225.13)" style="fill:#1e1e1d"/><path d="M428.74,359.18a16.38,16.38,0,0,0,2.22-7.45h-1.9a12.79,12.79,0,0,1-1.72,6.17,74.25,74.25,0,0,1-6.22-6.3c2.28-1.67,4.53-3.38,4.53-6.16a4.26,4.26,0,0,0-4.53-4.11,4.58,4.58,0,0,0-4.82,4.59v.24c0,1.55.93,3.33,2.28,5.17-2.23,1.67-4.4,3.57-4.4,6.51v.22c0,3.21,2.92,5.6,6.62,5.6a8.74,8.74,0,0,0,6.83-3,11.64,11.64,0,0,0,5.36,2.91l.51-1.62A10.88,10.88,0,0,1,428.74,359.18ZM418.3,346.1v-.16a2.69,2.69,0,0,1,2.85-2.84,2.33,2.33,0,0,1,2.44,2.44c0,1.93-1.61,3.32-3.52,4.71A7.92,7.92,0,0,1,418.3,346.1Zm2.63,15.73c-2.79,0-4.63-1.61-4.63-4v-.08c0-2.23,1.55-3.71,3.37-5.1,2,2.34,4.51,4.7,6.6,6.71A6.9,6.9,0,0,1,420.93,361.83Z" transform="translate(-136.85 -225.13)" style="fill:#1e1e1d"/><path d="M464.46,341.84a152.2,152.2,0,0,1-5,18.57h0c-1.31-4.12-2.35-8-3.42-12.11-.6-2.2-1-4.26-1.46-6.46H452.5c-.37,2.2-.82,4.26-1.36,6.46-1,4.07-2.15,8.21-3.32,12.11h-.06a157.12,157.12,0,0,1-5.22-18.57h-2.25a189.62,189.62,0,0,0,6.32,21.31h2.28c1.63-5,3.3-11,4.63-16.86h.06c1.39,5.89,3.1,12.12,4.74,16.86h2.25a180.9,180.9,0,0,0,6.11-21.31Z" transform="translate(-136.85 -225.13)" style="fill:#1e1e1d"/><path d="M481.58,362c-1,0-1.1-.5-1.1-1.68v-7.66c0-3.76-2.15-5.34-5.63-5.34a12.89,12.89,0,0,0-5,1l.32,1.67a11.82,11.82,0,0,1,4.28-1c3.19,0,4.08,1.35,4.08,3.76v.86h-.94a13.63,13.63,0,0,0-5.92.94,4.93,4.93,0,0,0-3,4.55c0,2.89,2.15,4.53,4.77,4.53a7.31,7.31,0,0,0,5.1-1.93,1.89,1.89,0,0,0,2,1.68,3.7,3.7,0,0,0,1-.15V362Zm-3-2.16a6.37,6.37,0,0,1-4.61,2.09c-2.17,0-3.17-1.32-3.17-2.9a3.58,3.58,0,0,1,2.77-3.4,15.11,15.11,0,0,1,3.94-.43h1.07Z" transform="translate(-136.85 -225.13)" style="fill:#1e1e1d"/><path d="M485.07,341.33v21.82H487V341.33Z" transform="translate(-136.85 -225.13)" style="fill:#1e1e1d"/><path d="M503.58,355.67a17.75,17.75,0,0,0-.19-2.6c-.58-3.67-2.54-5.76-6.14-5.76-4.71,0-6.58,4.21-6.58,8.23v0c0,2.82.75,5,2.14,6.4a6.82,6.82,0,0,0,4.91,1.67,11.19,11.19,0,0,0,4.74-1l-.3-1.67a10.94,10.94,0,0,1-4.34.94c-3.26,0-4.9-2-5.09-5.57h10.85Zm-10.88-1a6.66,6.66,0,0,1,1.61-4.34,4,4,0,0,1,3-1.17c2.73,0,4,2.12,4.18,5.51Z" transform="translate(-136.85 -225.13)" style="fill:#1e1e1d"/><path d="M512.43,354.71l-.78-.25c-1.9-.61-3.14-1-3.14-2.86,0-1.53,1.11-2.58,3.76-2.58a11.57,11.57,0,0,1,3.14.54l.18-1.69a12,12,0,0,0-3.48-.56c-3,0-5.53,1.32-5.53,4.5,0,2.65,2.06,3.75,4.3,4.39l.9.25c2,.57,2.81,1.29,2.81,2.76,0,2.33-1.65,2.81-3.8,2.81a11.37,11.37,0,0,1-4-.91l-.16,1.67a12.12,12.12,0,0,0,4.34.88c3.32,0,5.54-1.23,5.54-4.64C516.52,356.74,515.41,355.67,512.43,354.71Z" transform="translate(-136.85 -225.13)" style="fill:#1e1e1d"/><path d="M659.82,279.19a18.15,18.15,0,0,1,5.58-.62,31,31,0,0,0,5.79-.29,11.74,11.74,0,0,1,4.71.09,10.48,10.48,0,0,1,4.72,3.32l2.38,2.82s8.2,9.81,10.46,11.25c1.36,1,1.56,1.69,2.56,3.14a2.27,2.27,0,0,0,.56.72c.62.53,1.28,1.2,1.76,1.68.79.77,2.66,3,2.66,5.19s-1.77,2.05-3.71,1.91-5.29-.88-5.79-2.95a4.42,4.42,0,0,1,.32-2.5,1.63,1.63,0,0,0-.82-2.16c-.67-.3-2.27,0-2.84-1.74-.74-2.26-4.65-7.09-8.55-10.45,0,0-3.77-2.71-5.55-2.92l-.32,0a6.15,6.15,0,0,0-3.93.92s-1,.58-1.39.8-1.48.89-1.94,1.15a42.66,42.66,0,0,1-4.34,2,19.66,19.66,0,0,1-2.31.72l-.43.07-.48.6s2.44-.09,3.27-.1,2.56-.1,4.91-.23,3.59-.16,3.93-.15a4.1,4.1,0,0,1,2.62.77,8.07,8.07,0,0,1,2.28,3c.32.7,2,4.57,2.29,5.17.07.17.22.59.42,1.06a66.87,66.87,0,0,0,6.48,13.43,17.7,17.7,0,0,1,2.09,3.42,18.72,18.72,0,0,1,.91,5.26c.18,2-.1,5.76-1.9,5.85A5.93,5.93,0,0,1,682.5,328s-3.52-2.23-3.41-4.11a3.39,3.39,0,0,1,.57-1.74,14.53,14.53,0,0,0,1.75-2.87.92.92,0,0,0-.88-1.11,1.86,1.86,0,0,1-1.36-1.56,94.72,94.72,0,0,0-3.94-11.5c-.26-.45-.6-1.1-.85-1.45a25,25,0,0,0-2.11-2.68c-.82-.91-1.69-1.84-2.92-1.83s-2.3.11-4.84,1.51c0,0-1.94,1.06-3.11,1.76s-3.29,2-4.2,2.48-2.87,1.55-3.8,2-3.36,1.43-4.16,1.69h0a6.84,6.84,0,0,1-2.78.51c-.83-.14-1.13-.25-1.94-.44s-2.12-.4-4.75.76a34.53,34.53,0,0,1-6.26,2.31,52.29,52.29,0,0,1-7.37,1c-2.45.12-4.61.18-6.17.1s-4.2-.35-7.44-.78-5.89-.76-6.84-.83-2-.14-2.27-.14H603s-1,2.83-1.65,4.08a40.89,40.89,0,0,1-3.21,5.29,30.08,30.08,0,0,1-4.08,4.47,13.58,13.58,0,0,1-3.73,2.05,4.56,4.56,0,0,0-2.9,4.59,12,12,0,0,0,1.47,4.88,34.94,34.94,0,0,0,3.21,4.65,43.1,43.1,0,0,1,4.1,6.11,43,43,0,0,0,4.08,5.76,11.46,11.46,0,0,0,3.33,2.75,13.68,13.68,0,0,1,3.8,3c.82,1.23,1.51,2.49,1.2,3.78-.26,1.1-1.4,1-1.89,1H600.9a2.15,2.15,0,0,1-1.83-.81,5.26,5.26,0,0,1-.64-2,8.94,8.94,0,0,0-.61-2.49,2.64,2.64,0,0,0-1.49-1.38,3.91,3.91,0,0,1-2.26-1.71,4.62,4.62,0,0,1-.52-2.34,5.46,5.46,0,0,0-1.06-2.66c-.68-1.11-2.06-3.13-2.06-3.13l-1.88-2.6-2.19-2.82c-.26-.33-1.8-2.27-2.13-2.7a21.88,21.88,0,0,0-2.14-2.57c-1-1.05-1.6-1.68-1.94-2.16a5.52,5.52,0,0,1-.74-5.8,10.41,10.41,0,0,1,1.35-2,9.29,9.29,0,0,0,1.46-2,5.1,5.1,0,0,0,.53-1.64,6.47,6.47,0,0,0,0-.87,10.92,10.92,0,0,1-1,.72,18.49,18.49,0,0,1-3.87,2,21.71,21.71,0,0,1-3.8,1.06l-1.35.22a1.74,1.74,0,0,0-.75.27,11.22,11.22,0,0,0-2.06,1.63,8.79,8.79,0,0,0-1.69,2.19,8.67,8.67,0,0,0-.87,2.92c-.07.59-.54,4.7-.76,6.86a62,62,0,0,0-.45,6.89,14.94,14.94,0,0,0,.87,5.61,7.33,7.33,0,0,0,3,3.86,14.83,14.83,0,0,1,4,3.49,4.27,4.27,0,0,1,.8,3.14,1.11,1.11,0,0,1-1.17.82h-6.92a1.81,1.81,0,0,1-1.77-1.17,4.49,4.49,0,0,1-.33-2.37,4.43,4.43,0,0,0-.95-3.11,19,19,0,0,0-2.22-1.95,3.41,3.41,0,0,1-1.36-2.73c0-1,.57-2.81.65-4s.43-5.15.54-6.47.35-4.36.32-6.55-.12-4.46-.24-5.6-.29-2.47-.33-2.73a6.13,6.13,0,0,1,.1-2.4,6,6,0,0,1,2.39-3.12,27.63,27.63,0,0,0,3.48-2.79,21.2,21.2,0,0,0,3.46-4.55,20.08,20.08,0,0,0,1-2.75,10.4,10.4,0,0,0-.13-4,30.32,30.32,0,0,1-.6-4.43,29.32,29.32,0,0,1,.35-5.9,16.35,16.35,0,0,1,1.94-5.31c.47-.78,1.3-2,1.58-2.4,0,0,.48-.69-.59-.68a8.33,8.33,0,0,1-3.29-.41,4.14,4.14,0,0,0-4.81,2.16,2.34,2.34,0,0,1-1.26-2.16,4,4,0,0,1,1.24-2.83s.57-.8-1.24-.43-3.64,2.89-3.93,3.92l-.21.61s-.76,0-1.36-1.27-1.23-.45-1.47.21a5.57,5.57,0,0,0,1.54,5.08,19.22,19.22,0,0,0,3,2.82,28.33,28.33,0,0,1,3.8,3.74,9.22,9.22,0,0,1,1.89,6.15c-.23,3.15-1.63,4.89-2.71,5.66a15.14,15.14,0,0,1-4.81,2.34c-2.61.83-4,1.37-4.15,2.58s1.41,1.8,1.41,1.8-.69,1.66-3.29,1.27A4.46,4.46,0,0,1,550.6,315c.18-1.89.73-3.29,4.57-5.63s2.41-5.18,1.53-5.9-2.71-2.09-3.36-2.62a30.29,30.29,0,0,1-4.91-4.83,17.25,17.25,0,0,1-3.34-7.6,19.42,19.42,0,0,1,.47-8.71,14.89,14.89,0,0,1,2-4.39,13.67,13.67,0,0,1,6-4.62,12,12,0,0,1,9-.21c3.52,1.22,6.69,5.48,6.69,5.48s3.36,4.32,5.17,5.57a13.13,13.13,0,0,0,3,1.68l.18.06s1.88.78,2.82.26l.21-.14a23.6,23.6,0,0,1,8.07-3.28,31,31,0,0,1,11.06.26c2.36.34,4.15.76,6.23.91a28.81,28.81,0,0,0,6.58-.13,23.84,23.84,0,0,0,7.41-2.71,30.71,30.71,0,0,0,5.9-4,31.08,31.08,0,0,0,8.17-10.27,27.35,27.35,0,0,0,2.11-5.46,11.65,11.65,0,0,0,.33-2.27c0-.4,0-.27,0-.27-.05-4.21-6.45.66-6.45.66s-1.85,1.44-2,1.56a2.12,2.12,0,0,0-.62,1.48,2.48,2.48,0,0,1-1.7,2,2.28,2.28,0,0,1-2.47.05c-1.44-.58-1.32-.65-2.11-.71s-2.63-.74-3.06-4.34c0,0-.4-2.56.67-3.48a13.25,13.25,0,0,0,3-4.44A20.42,20.42,0,0,1,625,243.8c1.59-1.73,1-2.66.89-2.86s-.33-1.35,1.09-2.84,2.79-2.78,3.09-4-.13-1.72-1-2.82a3.08,3.08,0,0,1-.62-2.7c.2-.5.91-.35,1.28-.08a4.67,4.67,0,0,1,.85.76,10.35,10.35,0,0,0,1.49,1.63c.1,0,.08-1.11.08-1.11a9.13,9.13,0,0,0-.19-1.45,5.8,5.8,0,0,1,.17-2.22c.32-.94,1.06-.28,1.11-.22a3.68,3.68,0,0,1,.46,1,2.81,2.81,0,0,0,1.83,1.68,5.05,5.05,0,0,1,2.89,2,2.77,2.77,0,0,0,1.62,1c2.95.43,2.45-1.78,2.45-1.78a2.46,2.46,0,0,1,2.18,2.21,1.79,1.79,0,0,0,1.43,1.47c4.6.84,6.26,5.71,6.26,5.71a2.25,2.25,0,0,0,.88,1.15c2,1.36,4-.55,4-.55,1.81,3.6-1.28,6.35-1.28,6.35a5.39,5.39,0,0,0,2.29,2.53,6.94,6.94,0,0,1,3.18,3.52,2.11,2.11,0,0,0,2.79,1.33,5.38,5.38,0,0,1-5.42,4.8c.8,2.53,5.13,5.22,5.13,5.22a5.71,5.71,0,0,1-4.73,3.25,1.31,1.31,0,0,0-1.27,1.41,2.47,2.47,0,0,0,.86,1.48,7.9,7.9,0,0,1,2.19,6s-1.79-.94-2.51-.13a1.63,1.63,0,0,0-.1,1.85A4,4,0,0,0,659.82,279.19Z" transform="translate(-136.85 -225.13)" style="fill:#1d1d1b"/><path d="M548.42,282.93c1.19,0,3.39-6.62,7.87-6.62,1.32,0,1.6.51,1.6,1,0,.91-1.48,1.7-1.48,2.89a.47.47,0,0,0,.51.52c1.07,0,1.88-2.41,6.38-2.41a11.8,11.8,0,0,1,3.3.42c.48.12,1.51.58,1.11-.8a9.63,9.63,0,0,0-9.32-6c-4.79,0-9.79,4.33-10.39,9.53-.1.91-.1,1.51.42,1.51Z" transform="translate(-136.85 -225.13)" style="opacity:0.9;mix-blend-mode:screen;fill:url(#a)"/><path d="M606,360.11a6.76,6.76,0,0,0-3.12-2.52c.32,1.2.41,4.19,1.61,4.19h1.4C606.68,361.78,606.29,360.62,606,360.11Z" transform="translate(-136.85 -225.13)" style="fill:url(#b)"/><path d="M571.72,360.11a6.72,6.72,0,0,0-3.22-2.4c.31,1.18.49,4.07,1.7,4.07h1.6C572.6,361.78,572,360.62,571.72,360.11Z" transform="translate(-136.85 -225.13)" style="fill:url(#c)"/><path d="M644.29,278.75c11.39,5,10.86,14.58,11.82,12.14a9.85,9.85,0,0,0-2.28-10.19c-3.16-3.55-4.36-2.63-3.19-5.66,4.67-12,7.48-30.16-7.34-36.25-1.72-.66-3.09-.63-3.09-.33s1.6.78,3.54,2.06c9.89,6.33,7.2,24.18-1.65,33-3,3-1.52,3.64,2.19,5.27Z" transform="translate(-136.85 -225.13)" style="fill:url(#d)"/><path d="M633.7,241.19c-1.24-.63-1.38-1.35-.81-2.91s.66-2.36-.12-2.65a2.73,2.73,0,0,0-2.6.93,19.78,19.78,0,0,0-2.88,3.24c-.52,1.34,1.17,1.33-.27,3.48a46.19,46.19,0,0,0-4.37,6.93,12.68,12.68,0,0,1-2.52,3.84c-.71.76.69,1,2.32.67s1.64,1.59.91,2.93c-.62,1-.26,1.39,1.23.43s-.49-1.86.37-5a17.88,17.88,0,0,1,3.67-7.07c1.8-2.35,3.26-4,5.74-2.81,1,.6.63-1.24-.67-2Z" transform="translate(-136.85 -225.13)" style="mix-blend-mode:screen;fill:url(#e)"/><path d="M696.28,301.71c.84,2.34-.95,4.67.64,5,.87.19,2.3.29,2.42-.3C699.58,305.21,698,302.59,696.28,301.71Z" transform="translate(-136.85 -225.13)" style="fill:url(#f)"/><path d="M685.45,320.9c-.76,2.24-2.24,3.56-2.45,4.56-.14.76,1.65,1.82,2.37,2,.53.1.75-.65.89-1.29A7.69,7.69,0,0,0,685.45,320.9Z" transform="translate(-136.85 -225.13)" style="fill:url(#g)"/><path d="M615.14,295.85c6.22-.7,7.22-2.12,8.32-6.87a14.73,14.73,0,0,1,3.48-6,29,29,0,0,0,3.39-4.25c.36-.6.13-1-.18-.77-.72.52-3.43,2.55-4.32,3.26A29.73,29.73,0,0,1,612.15,286c-6.45.09-10.85-1.56-16.06-1.56-15.6,0-21.14,12.13-20.31,19.25.1,1.1.27,1.19.67,1.19,1.11,0,2-4.2,5.92-7.93,5.69-5.41,11.89-8.52,20.7-8.52,6.39,0,9,2.09,9,2.9,0,1.59-2.71,1.69-2.49,3.32,0,.51,1.48,1.7,5.58,1.21Z" transform="translate(-136.85 -225.13)" style="fill:url(#h)"/></g></svg>