<?xml version="1.0" encoding="UTF-8" standalone="no"?>
<svg
   xmlns:dc="http://purl.org/dc/elements/1.1/"
   xmlns:cc="http://creativecommons.org/ns#"
   xmlns:rdf="http://www.w3.org/1999/02/22-rdf-syntax-ns#"
   xmlns:svg="http://www.w3.org/2000/svg"
   xmlns="http://www.w3.org/2000/svg"
   xmlns:sodipodi="http://sodipodi.sourceforge.net/DTD/sodipodi-0.dtd"
   xmlns:inkscape="http://www.inkscape.org/namespaces/inkscape"
   id="logo_white"
   width="207.35"
   height="69.772"
   viewBox="0 0 207.35 69.772"
   version="1.1"
   sodipodi:docname="sneh_logo_black.svg"
   inkscape:version="1.0.1 (3bc2e813f5, 2020-09-07)">
  <metadata
     id="metadata19">
    <rdf:RDF>
      <cc:Work
         rdf:about="">
        <dc:format>image/svg+xml</dc:format>
        <dc:type
           rdf:resource="http://purl.org/dc/dcmitype/StillImage" />
        <dc:title></dc:title>
      </cc:Work>
    </rdf:RDF>
  </metadata>
  <defs
     id="defs17" />
  <sodipodi:namedview
     pagecolor="#ffffff"
     bordercolor="#666666"
     borderopacity="1"
     objecttolerance="10"
     gridtolerance="10"
     guidetolerance="10"
     inkscape:pageopacity="0"
     inkscape:pageshadow="2"
     inkscape:window-width="1920"
     inkscape:window-height="1017"
     id="namedview15"
     showgrid="false"
     inkscape:zoom="8.2999756"
     inkscape:cx="103.675"
     inkscape:cy="34.886002"
     inkscape:window-x="-8"
     inkscape:window-y="-8"
     inkscape:window-maximized="1"
     inkscape:current-layer="logo_white" />
  <g
     id="g549"
     style="fill:#000000">
    <text
       id="Sneh_Sangam"
       data-name="Sneh Sangam"
       fill="#000"
       font-size="26px"
       font-family="MacondoSwashCaps-Regular, 'Macondo Swash Caps'"
       style="fill:#000000"
       x="151.12021"
       y="28.757883"><tspan
         x="79.113213"
         y="28.757883"
         id="tspan2"
         style="fill:#3b1855">Sneh</tspan></text>
    <g
       id="g518"
       transform="matrix(0.10004426,0,0,0.10004426,16.512568,11.590077)"
       style="fill:#3b1855">
      <path
         d="m 151.04687,351.55859 c -5.44921,4.36328 -13.58593,10.87891 -23.40624,18.74219 l 72.30078,72.30078 c 2.83984,2.83594 5.28906,5.91797 7.37109,9.16407 l 33.66016,-39.94141 V 183.24219 c 0,-8.91797 -7.25391,-16.17188 -16.17188,-16.17188 -8.91406,0 -16.16797,7.25391 -16.16797,16.17188 v 66.20312 h -30 v -66.20312 c 0,-25.45703 20.71094,-46.17188 46.16797,-46.17188 5.6875,0 11.13672,1.04297 16.17188,2.92969 V 0.261719 C 239.64453,0.105469 238.30078,0 236.93359,0 223.65625,0 211.60937,7.722656 206.04687,19.730469 l -74.43359,137.417971 -0.23047,0.4414 c -9.95312,19.92579 -12.85156,42.89454 -8.16797,64.67188 z m 0,0"
         id="path492"
         style="fill:#3b1855" />
      <path
         d="m 270.97266,140 c 5.03515,-1.88672 10.48046,-2.92969 16.16796,-2.92969 25.46094,0 46.17188,20.71485 46.17188,46.17188 v 66.20312 h -30 v -66.20312 c 0,-8.91797 -7.25391,-16.17188 -16.17188,-16.17188 -8.91406,0 -16.16796,7.25391 -16.16796,16.17188 v 228.60547 l 33.66015,40.0039 c 2.09766,-3.27734 4.5625,-6.38672 7.42578,-9.25 l 72.2461,-72.24609 c -9.82031,-7.87891 -17.96485,-14.41406 -23.41016,-18.78516 l 27.83203,-129.30859 c 4.6875,-21.77734 1.78907,-44.74609 -8.16797,-64.67578 L 380.44922,157.36328 305.89844,19.730469 C 300.33594,7.722656 288.28906,0 275.01172,0 c -1.36719,0 -2.71094,0.105469 -4.03906,0.261719 z m 0,0"
         id="path494"
         style="fill:#3b1855" />
      <path
         d="m 440.9375,391.27734 c -9.68359,-9.68359 -25.44531,-9.68359 -35.13281,0 l -72.53516,72.53516 c -9.68359,9.6875 -9.68359,25.44922 0,35.13281 9.6875,9.6875 25.44922,9.6875 35.13281,0 l 72.53516,-72.53125 c 9.6875,-9.6875 9.6875,-25.44922 0,-35.13672 z m 0,0"
         id="path496"
         style="fill:#3b1855" />
      <path
         d="m 512,473.08984 c -11.41016,-9.1914 -26.30078,-21.30078 -42.61328,-34.41015 -2.05469,3.16797 -4.46094,6.17187 -7.23438,8.94531 L 397.77734,512 H 512 Z m 0,0"
         id="path498"
         style="fill:#3b1855" />
      <path
         d="m 143.59766,498.94531 c 9.68359,9.6875 25.44531,9.6875 35.13281,0 9.68359,-9.68359 9.68359,-25.44531 0,-35.13281 l -72.53516,-72.53516 c -4.84375,-4.83984 -11.207029,-7.26172 -17.566404,-7.26172 -6.363281,0 -12.726562,2.42188 -17.566406,7.26172 -9.6875,9.6875 -9.6875,25.44922 0,35.13282 z m 0,0"
         id="path500"
         style="fill:#3b1855" />
      <path
         d="M 0,512 H 114.22266 L 49.847656,447.625 C 47.023438,444.80078 44.578125,441.73437 42.5,438.5 26.488281,451.33594 11.589844,463.28906 0,472.60156 Z m 0,0"
         id="path502"
         style="fill:#3b1855" />
    </g>
    <text
       id="Sneh_Sangam-7"
       data-name="Sneh Sangam"
       fill="#555"
       font-size="26px"
       font-family="MacondoSwashCaps-Regular, 'Macondo Swash Caps'"
       style="fill:#555"
       x="178.97015"
       y="56.057732"><tspan
         x="106.96314"
         y="56.057732"
         id="tspan2-1"
         style="fill:#3b1855">Sangam</tspan></text>
  </g>
</svg>
